<?xml version="1.0" standalone="no"?>
<!DOCTYPE svg PUBLIC "-//W3C//DTD SVG 20010904//EN"
 "http://www.w3.org/TR/2001/REC-SVG-20010904/DTD/svg10.dtd">
<svg version="1.0" xmlns="http://www.w3.org/2000/svg"
 width="500.000000pt" height="500.000000pt" viewBox="0 0 500.000000 500.000000"
 preserveAspectRatio="xMidYMid meet">
<metadata>
Created by potrace 1.14, written by Peter Selinger 2001-2017
</metadata>
<g transform="translate(0.000000,500.000000) scale(0.100000,-0.100000)"
fill="#000000" stroke="none">
<path d="M2475 4695 c-55 -13 -129 -35 -165 -48 -36 -14 -79 -27 -95 -30 -42
-7 -114 -36 -155 -64 -19 -13 -40 -23 -47 -23 -6 0 -18 -6 -25 -12 -14 -13
-26 -21 -107 -66 -24 -13 -50 -29 -55 -33 -19 -15 -118 -79 -123 -79 -2 0 -30
-18 -61 -39 -58 -40 -119 -100 -162 -161 -30 -43 -80 -90 -95 -90 -12 0 -161
-138 -166 -155 -2 -5 -17 -17 -34 -25 -30 -16 -38 -40 -61 -185 -12 -73 -12
-376 0 -405 15 -40 63 -85 126 -121 71 -40 83 -62 104 -184 16 -91 50 -222 79
-304 19 -53 15 -62 -25 -58 -50 4 -69 -32 -69 -129 1 -79 14 -198 28 -238 4
-12 8 -25 9 -31 9 -34 54 -202 57 -210 2 -5 9 -20 15 -33 7 -12 10 -22 8 -22
-3 0 -1 -12 5 -27 6 -16 11 -54 11 -87 0 -67 19 -120 49 -136 14 -8 19 -18 16
-31 -3 -10 -1 -22 4 -25 5 -3 7 -9 4 -14 -5 -7 -2 -33 20 -180 3 -19 8 -46 12
-60 3 -14 7 -35 9 -48 6 -49 45 -194 61 -227 9 -19 15 -37 12 -39 -13 -13
-253 -125 -281 -131 -32 -7 -138 -40 -168 -52 -8 -3 -20 -7 -26 -8 -28 -7
-141 -68 -156 -85 -9 -11 -20 -20 -25 -20 -4 0 -17 -12 -28 -26 -10 -14 -27
-35 -37 -46 -10 -12 -18 -25 -18 -30 0 -4 -9 -17 -20 -28 -11 -11 -20 -27 -20
-35 0 -8 -5 -15 -12 -15 -6 0 -8 -3 -5 -7 4 -3 1 -13 -6 -22 -16 -20 -42 -96
-63 -186 -21 -94 -23 -104 -29 -148 -3 -21 -7 -48 -10 -60 -3 -12 -7 -47 -10
-77 -2 -30 -7 -65 -9 -78 l-5 -23 2109 3 c1159 2 2111 6 2114 9 9 8 -18 57
-40 74 -11 8 -26 15 -35 15 -9 0 -24 9 -33 19 -10 11 -29 22 -42 25 -30 8 -53
28 -190 165 -70 69 -104 111 -104 126 0 12 -9 30 -20 40 -12 10 -18 25 -15 32
2 8 -6 25 -20 39 -20 20 -23 29 -15 45 8 13 8 19 0 19 -7 0 -7 6 0 21 9 15 8
24 -1 35 -6 8 -8 14 -4 14 4 0 -4 11 -18 24 -14 13 -23 26 -21 29 18 18 -60
99 -128 133 -24 12 -72 36 -108 54 -36 18 -72 38 -80 45 -38 33 -140 52 -261
49 l-118 -4 -20 28 c-11 15 -28 63 -39 106 -11 43 -23 80 -26 83 -3 3 1 17 8
32 19 36 56 212 63 296 6 76 16 105 37 105 31 0 79 94 101 198 4 18 18 61 32
95 13 34 26 69 28 77 2 8 10 35 19 60 9 25 16 55 16 67 0 12 4 24 9 27 4 3 12
20 16 38 4 18 9 35 10 38 11 28 14 39 19 61 10 44 19 133 19 174 -1 76 -7 97
-38 121 -68 53 -65 44 -40 123 13 39 28 95 34 123 6 29 14 64 17 78 30 136 47
228 48 278 1 12 3 22 6 22 3 0 6 29 8 65 1 36 9 100 16 143 14 74 15 255 3
317 -38 192 -138 377 -267 494 -120 109 -416 317 -521 364 -89 40 -176 60
-323 72 -39 4 -82 9 -96 12 -14 2 -79 6 -145 8 -98 2 -139 -1 -220 -20z"/>
</g>
</svg>
